<svg width="40" height="40" viewBox="0 0 40 40" fill="none" xmlns="http://www.w3.org/2000/svg">
<path d="M38.6583 9.1979C39.3055 8.35136 38.7579 6.60864 37.4632 7.10656C34.4259 8.30156 31.2889 10.9406 29.2474 13.5298C27.1063 16.2684 26.708 19.7539 27.7039 23.0402C29.1479 27.8204 33.3802 30.9573 37.4632 33.4967C39.3554 34.6918 41.0484 31.7042 39.206 30.5092C36.2184 28.6668 32.8823 26.3266 31.3885 23.0402C30.2433 20.451 30.2433 17.5132 32.1354 15.2228C34.0275 12.9821 36.8159 11.4884 38.6583 9.1979ZM0.815782 30.5092C-1.07634 31.6544 0.666409 34.642 2.55853 33.4967C6.64154 30.9573 10.8241 27.8204 12.3179 23.0402C13.3137 19.8535 12.9652 16.368 10.9237 13.729C8.93202 11.09 5.69548 8.35136 2.60832 7.15636C1.31372 6.65844 0.716202 8.40116 1.4133 9.24763C3.20584 11.4884 5.89464 12.9821 7.78675 15.1232C9.77848 17.4137 9.87808 20.4012 8.68302 23.1398C7.13948 26.3266 3.75356 28.6668 0.815782 30.5092ZM30.4923 0.782889C28.65 3.77046 26.3097 7.10656 23.0233 8.60036C20.4341 9.74556 17.4963 9.74556 15.2059 7.85343C12.9154 5.96134 11.4216 3.17294 9.13115 1.33061C8.33448 0.683303 6.59174 1.28082 7.08968 2.57543C8.28468 5.61279 10.9237 8.74976 13.5129 10.7912C16.2515 12.9323 19.737 13.3306 23.0233 12.3348C27.8035 10.8908 30.9404 6.65844 33.4798 2.57543C34.6251 0.683303 31.6873 -1.05944 30.4923 0.782889ZM33.4798 37.4802C30.9404 33.3972 27.8035 29.2146 23.0233 27.7208C19.8366 26.7249 16.3511 27.0734 13.7121 29.115C11.0731 31.1067 8.33448 34.3432 7.13948 37.4304C6.64154 38.725 8.38428 39.3225 9.23075 38.6254C11.4714 36.8328 12.9652 34.144 15.1063 32.2519C17.3967 30.2602 20.3843 30.1606 23.1229 31.3556C26.4093 32.8494 28.6997 36.1855 30.5918 39.1731C31.6873 41.0652 34.6251 39.3723 33.4798 37.4802Z" fill="#AEAEB1"/>
</svg>
