<svg width="40" height="40" viewBox="0 0 40 40" fill="none" xmlns="http://www.w3.org/2000/svg">
<path d="M33.3332 36C33.3332 28.6368 27.3632 22.6668 20 22.6668C12.6368 22.6668 6.6668 28.6368 6.6668 36H4C4 27.164 11.164 20 20 20C28.836 20 36 27.164 36 36H33.3332ZM22.6668 4C22.6668 11.3632 28.6368 17.3336 36 17.3336V20C27.164 20 20 12.836 20 4H22.6668Z" fill="#AEAEB1"/>
<path d="M32 12C34.2091 12 36 10.2091 36 8C36 5.79086 34.2091 4 32 4C29.7909 4 28 5.79086 28 8C28 10.2091 29.7909 12 32 12Z" fill="#AEAEB1"/>
<path d="M20.0012 36.0023C22.9466 36.0023 25.3344 33.6145 25.3344 30.6691C25.3344 27.7237 22.9466 25.3359 20.0012 25.3359C17.0557 25.3359 14.668 27.7237 14.668 30.6691C14.668 33.6145 17.0557 36.0023 20.0012 36.0023Z" fill="#AEAEB1"/>
<path d="M10.6668 17.3336C14.3488 17.3336 17.3336 14.3488 17.3336 10.6668C17.3336 6.9848 14.3488 4 10.6668 4C6.9848 4 4 6.9848 4 10.6668C4 14.3488 6.9848 17.3336 10.6668 17.3336Z" fill="#AEAEB1"/>
</svg>
