<svg width="40" height="40" viewBox="0 0 40 40" fill="none" xmlns="http://www.w3.org/2000/svg">
<path d="M5.07031 15.3828H8.94077V34.3289H5.07031V15.3828ZM11.7688 15.3828H15.6393V34.3289H11.7688V15.3828ZM18.1919 15.3828H22.0624V34.3289H18.1919V15.3828Z" fill="#AEAEB1"/>
<path d="M34.3297 20.2296C34.3297 24.7869 30.7336 28.5203 26.229 28.7426V31.153C32.0628 30.9287 36.7398 26.1152 36.7398 20.2295C36.7398 14.2012 31.8337 9.29688 25.8035 9.29688H9.19922V11.7059H25.8036C30.505 11.7059 34.3297 15.5296 34.3297 20.2296Z" fill="#AEAEB1"/>
<path d="M25.8027 6.03975H9.19833V8.4488H25.8027C32.3023 8.4488 37.5901 13.7349 37.5901 20.2324C37.5901 26.5875 32.5315 31.7827 26.2283 32.0075V34.4187C33.8606 34.193 40 27.9159 40 20.2324C40 12.4065 33.6311 6.03975 25.8027 6.03975ZM6.31463 8.30453C6.31463 6.56426 4.89829 5.14844 3.15735 5.14844C1.41642 5.14844 0 6.56426 0 8.30453C0 10.0448 1.41642 11.4606 3.15735 11.4606C4.89829 11.4606 6.31463 10.0448 6.31463 8.30453Z" fill="#AEAEB1"/>
</svg>
