<svg width="33" height="40" viewBox="0 0 33 40" fill="none" xmlns="http://www.w3.org/2000/svg">
<path fill-rule="evenodd" clip-rule="evenodd" d="M0.332033 0H10.5668V21.2807C10.5668 21.7538 10.5626 22.2034 10.5588 22.6325C10.5444 24.1965 10.5326 25.4877 10.7316 26.652C10.9665 28.0269 11.479 29.0725 12.6388 29.9299L12.6399 29.9307C13.6052 30.646 15.2285 31.0559 16.9681 31.0461C18.7244 31.0362 20.222 30.6023 20.9594 30.026C21.8616 29.3212 22.285 28.5878 22.5138 27.4175C22.764 26.1383 22.764 24.4424 22.764 21.8061V0H32.9987V20.8633C32.999 24.6785 32.9992 28.3289 32.0244 31.3843C30.9886 34.6312 28.8731 37.1749 24.8464 38.7838C22.5646 39.6955 19.3606 40.0418 16.3686 39.996C13.3846 39.9504 10.3499 39.5104 8.4109 38.6694C4.42863 36.9431 2.34139 34.3307 1.31219 31.1441C0.331866 28.1089 0.331953 24.5878 0.332033 21.0785V0ZM2.96099 2.64446V20.9813C2.96099 24.6381 2.97721 27.7409 3.8125 30.3271C4.60797 32.7899 6.16303 34.8153 9.45137 36.2408C10.9238 36.8795 13.5552 37.3082 16.4086 37.3519C19.2542 37.3954 22.0596 37.0517 23.8759 36.3261C27.1828 35.0049 28.7289 33.0596 29.5212 30.5763C30.3591 27.9498 30.3697 24.6962 30.3697 20.682V2.64446H25.3929V21.7046C25.3929 21.8221 25.393 21.9384 25.393 22.0537C25.3937 24.4601 25.3942 26.3897 25.0934 27.928C24.7536 29.6654 24.0206 30.9828 22.5722 32.1144C21.181 33.2015 19.0067 33.6791 16.9828 33.6905C14.9424 33.7019 12.6776 33.2428 11.0813 32.0603M2.96099 2.64446H7.93783V21.2807C7.93783 21.6751 7.93383 22.0731 7.92983 22.4713C7.9137 24.0707 7.8975 25.677 8.14063 27.0999C8.46283 28.9857 9.25457 30.7093 11.0813 32.0603" fill="#AEAEB1"/>
</svg>
