<svg width="309" height="100" viewBox="0 0 309 100" fill="none" xmlns="http://www.w3.org/2000/svg">
<path d="M301.174 49.2013C293.557 42.0534 285.033 35.932 275.82 30.9936C269.995 27.723 263.388 24.3549 256.242 20.9867C248.612 17.3389 240.737 14.2236 232.674 11.6632C228.328 10.3005 223.897 9.22424 219.41 8.44147C214.761 7.57328 210.043 7.12401 205.314 7.09908C200.468 7.01793 195.629 7.50949 190.899 8.5635C186.106 9.56026 181.47 11.2024 177.121 13.4449L176.411 13.8354C176.607 14.0307 176.852 14.2015 177.072 14.3968C185.354 21.8165 190.997 31.7179 193.151 42.6114C194.183 48.1481 194.075 53.8365 192.832 59.3302C191.535 65.0855 188.78 70.4131 184.83 74.8043C182.818 77.1825 180.438 79.2258 177.782 80.8572C174.818 82.7073 171.47 83.8592 167.992 84.2254C164.607 84.4962 161.203 84.0514 158.002 82.92C154.801 81.7886 151.876 79.9962 149.417 77.6599C144.966 73.4252 142.143 67.7685 141.439 61.6733C140.763 56.0952 141.195 50.4389 142.712 45.0276C144.157 39.6938 146.419 34.6143 149.417 29.9685C153.173 24.1789 157.89 19.0698 163.367 14.8605C162.011 14.0848 160.605 13.3999 159.158 12.8103C150.645 9.27016 141.45 7.66117 132.237 8.09977C123.644 8.4506 115.154 10.0964 107.055 12.9812C99.9691 15.4639 93.2136 18.7998 86.9382 22.9149C81.6858 26.5343 76.7713 30.6187 72.2544 35.1184C65.1151 42.085 58.7631 49.8113 53.3124 58.1586C49.6111 63.7287 46.3387 69.5706 43.5232 75.6341C41.2962 80.5155 39.8522 84.1278 38.7999 86.959C37.8455 89.3997 37.2826 91.035 36.7932 92.2797L38.4328 91.1326C43.1071 87.862 47.3899 84.982 51.0609 82.6389C58.4027 77.9772 63.2973 75.3168 63.9091 76.1467C64.521 76.9765 60.85 80.7352 54.3402 86.3488C51.0853 89.18 47.1452 92.4262 42.6911 95.9652L41.0025 97.3076C40.282 97.8931 39.5124 98.4157 38.702 98.8696C38.1771 99.1525 37.6284 99.3893 37.0623 99.5774C36.3429 99.8182 35.5934 99.9578 34.8353 99.9924C33.2741 100.064 31.7309 99.636 30.4302 98.772C28.8436 97.5691 27.4986 96.0786 26.4656 94.3787L23.7491 90.6445C9.06534 69.6544 -1.53143 51.8128 0.181671 50.8121C1.89478 49.8114 15.2081 65.9933 29.9163 86.9834L31.8252 89.7658C32.0009 88.3421 32.2707 86.9316 32.6328 85.5434C33.6263 81.3825 34.9353 77.303 36.5484 73.3398C39.136 66.7892 42.3227 60.49 46.0684 54.522C51.5988 45.5427 58.1701 37.2441 65.6467 29.7976C70.5472 24.8777 75.8974 20.4244 81.6275 16.4958C88.5358 11.909 95.9928 8.20288 103.824 5.4638C112.85 2.24538 122.317 0.426259 131.895 0.0698441C142.554 -0.401423 153.183 1.51684 163 5.68347C165.834 6.8723 168.54 8.34422 171.076 10.0767C172.03 9.53978 172.985 9.00283 173.964 8.5391C178.875 6.09566 184.094 4.32244 189.48 3.26717C194.697 2.22329 200.019 1.78917 205.338 1.97359C210.414 2.10214 215.468 2.69033 220.438 3.7309C225.106 4.63882 229.709 5.85369 234.216 7.36756C242.417 10.1537 250.4 13.5392 258.102 17.4965C265.297 21.125 271.823 24.7128 277.68 28.26C286.878 33.621 295.232 40.3074 302.471 48.1029C304.361 50.1969 306.088 52.4327 307.635 54.7905C308.638 56.4257 309.103 57.2312 308.981 57.3776C308.858 57.5241 306.338 54.2779 301.125 49.2013H301.174ZM170.905 20.3033C170.293 19.7419 169.632 19.2294 168.971 18.7168C163.628 22.7323 159.073 27.6969 155.536 33.3611C152.963 37.5036 151.04 42.014 149.834 46.7361C148.607 51.359 148.307 56.1781 148.952 60.9166C149.541 65.423 151.688 69.5833 155.022 72.6809C156.641 74.2215 158.568 75.4046 160.676 76.1532C162.784 76.9017 165.027 77.1989 167.258 77.0253C171.718 76.2337 175.722 73.8149 178.491 70.2402C181.579 66.7185 183.711 62.4667 184.683 57.8902C185.613 53.3403 185.613 48.65 184.683 44.1002C183.776 39.526 182.123 35.1313 179.788 31.0912C177.474 27.0244 174.487 23.3771 170.954 20.3033" fill="#FFC400"/>
</svg>
